<svg width="95" height="13" viewBox="0 0 95 13" fill="none" xmlns="http://www.w3.org/2000/svg">
<path d="M1.55469 6.75L6.95312 8.9375V10.4688L0.5625 7.50781V6.60938L1.55469 6.75ZM6.95312 4.95312L1.5625 7.17188L0.5625 7.28125V6.375L6.95312 3.42188V4.95312ZM15.8438 4.38281V5.64062H9.32812V4.38281H15.8438ZM15.8438 7.625V8.88281H9.32812V7.625H15.8438ZM22.6875 0.625H24.1484L27.875 9.89844L31.5938 0.625H33.0625L28.4375 12H27.2969L22.6875 0.625ZM22.2109 0.625H23.5L23.7109 7.5625V12H22.2109V0.625ZM32.2422 0.625H33.5312V12H32.0312V7.5625L32.2422 0.625ZM39.4688 12.1562C38.8802 12.1562 38.3464 12.0573 37.8672 11.8594C37.3932 11.6562 36.9844 11.3724 36.6406 11.0078C36.3021 10.6432 36.0417 10.2109 35.8594 9.71094C35.6771 9.21094 35.5859 8.66406 35.5859 8.07031V7.74219C35.5859 7.05469 35.6875 6.44271 35.8906 5.90625C36.0938 5.36458 36.3698 4.90625 36.7188 4.53125C37.0677 4.15625 37.4635 3.8724 37.9062 3.67969C38.349 3.48698 38.8073 3.39062 39.2812 3.39062C39.8854 3.39062 40.4062 3.49479 40.8438 3.70312C41.2865 3.91146 41.6484 4.20312 41.9297 4.57812C42.2109 4.94792 42.4193 5.38542 42.5547 5.89062C42.6901 6.39062 42.7578 6.9375 42.7578 7.53125V8.17969H36.4453V7H41.3125V6.89062C41.2917 6.51562 41.2135 6.15104 41.0781 5.79688C40.9479 5.44271 40.7396 5.15104 40.4531 4.92188C40.1667 4.69271 39.776 4.57812 39.2812 4.57812C38.9531 4.57812 38.651 4.64844 38.375 4.78906C38.099 4.92448 37.862 5.1276 37.6641 5.39844C37.4661 5.66927 37.3125 6 37.2031 6.39062C37.0938 6.78125 37.0391 7.23177 37.0391 7.74219V8.07031C37.0391 8.47135 37.0938 8.84896 37.2031 9.20312C37.3177 9.55208 37.4818 9.85938 37.6953 10.125C37.9141 10.3906 38.1771 10.599 38.4844 10.75C38.7969 10.901 39.151 10.9766 39.5469 10.9766C40.0573 10.9766 40.4896 10.8724 40.8438 10.6641C41.1979 10.4557 41.5078 10.1771 41.7734 9.82812L42.6484 10.5234C42.4661 10.7995 42.2344 11.0625 41.9531 11.3125C41.6719 11.5625 41.3255 11.7656 40.9141 11.9219C40.5078 12.0781 40.026 12.1562 39.4688 12.1562ZM45.8906 5.35156V12H44.4453V3.54688H45.8125L45.8906 5.35156ZM45.5469 7.45312L44.9453 7.42969C44.9505 6.85156 45.0365 6.31771 45.2031 5.82812C45.3698 5.33333 45.6042 4.90365 45.9062 4.53906C46.2083 4.17448 46.5677 3.89323 46.9844 3.69531C47.4062 3.49219 47.8724 3.39062 48.3828 3.39062C48.7995 3.39062 49.1745 3.44792 49.5078 3.5625C49.8411 3.67188 50.125 3.84896 50.3594 4.09375C50.599 4.33854 50.7812 4.65625 50.9062 5.04688C51.0312 5.43229 51.0938 5.90365 51.0938 6.46094V12H49.6406V6.44531C49.6406 6.0026 49.5755 5.64844 49.4453 5.38281C49.3151 5.11198 49.125 4.91667 48.875 4.79688C48.625 4.67188 48.3177 4.60938 47.9531 4.60938C47.5938 4.60938 47.2656 4.6849 46.9688 4.83594C46.6771 4.98698 46.4245 5.19531 46.2109 5.46094C46.0026 5.72656 45.8385 6.03125 45.7188 6.375C45.6042 6.71354 45.5469 7.07292 45.5469 7.45312ZM58.4609 10.0469V3.54688H59.9141V12H58.5312L58.4609 10.0469ZM58.7344 8.26562L59.3359 8.25C59.3359 8.8125 59.276 9.33333 59.1562 9.8125C59.0417 10.2865 58.8542 10.6979 58.5938 11.0469C58.3333 11.3958 57.9922 11.6693 57.5703 11.8672C57.1484 12.0599 56.6354 12.1562 56.0312 12.1562C55.6198 12.1562 55.2422 12.0964 54.8984 11.9766C54.5599 11.8568 54.2682 11.6719 54.0234 11.4219C53.7786 11.1719 53.5885 10.8464 53.4531 10.4453C53.3229 10.0443 53.2578 9.5625 53.2578 9V3.54688H54.7031V9.01562C54.7031 9.39583 54.7448 9.71094 54.8281 9.96094C54.9167 10.2057 55.0339 10.401 55.1797 10.5469C55.3307 10.6875 55.4974 10.7865 55.6797 10.8438C55.8672 10.901 56.0599 10.9297 56.2578 10.9297C56.8724 10.9297 57.3594 10.8125 57.7188 10.5781C58.0781 10.3385 58.3359 10.0182 58.4922 9.61719C58.6536 9.21094 58.7344 8.76042 58.7344 8.26562ZM67.6562 3.54688V12H66.2031V3.54688H67.6562ZM66.0938 1.30469C66.0938 1.07031 66.1641 0.872396 66.3047 0.710938C66.4505 0.549479 66.6641 0.46875 66.9453 0.46875C67.2214 0.46875 67.4323 0.549479 67.5781 0.710938C67.7292 0.872396 67.8047 1.07031 67.8047 1.30469C67.8047 1.52865 67.7292 1.72135 67.5781 1.88281C67.4323 2.03906 67.2214 2.11719 66.9453 2.11719C66.6641 2.11719 66.4505 2.03906 66.3047 1.88281C66.1641 1.72135 66.0938 1.52865 66.0938 1.30469ZM73.3594 10.9688C73.7031 10.9688 74.0208 10.8984 74.3125 10.7578C74.6042 10.6172 74.8438 10.4245 75.0312 10.1797C75.2188 9.92969 75.3255 9.64583 75.3516 9.32812H76.7266C76.7005 9.82812 76.5312 10.2943 76.2188 10.7266C75.9115 11.1536 75.5078 11.5 75.0078 11.7656C74.5078 12.026 73.9583 12.1562 73.3594 12.1562C72.724 12.1562 72.1693 12.0443 71.6953 11.8203C71.2266 11.5964 70.8359 11.2891 70.5234 10.8984C70.2161 10.5078 69.9844 10.0599 69.8281 9.55469C69.6771 9.04427 69.6016 8.50521 69.6016 7.9375V7.60938C69.6016 7.04167 69.6771 6.50521 69.8281 6C69.9844 5.48958 70.2161 5.03906 70.5234 4.64844C70.8359 4.25781 71.2266 3.95052 71.6953 3.72656C72.1693 3.5026 72.724 3.39062 73.3594 3.39062C74.0208 3.39062 74.599 3.52604 75.0938 3.79688C75.5885 4.0625 75.9766 4.42708 76.2578 4.89062C76.5443 5.34896 76.7005 5.86979 76.7266 6.45312H75.3516C75.3255 6.10417 75.2266 5.78906 75.0547 5.50781C74.888 5.22656 74.6589 5.0026 74.3672 4.83594C74.0807 4.66406 73.7448 4.57812 73.3594 4.57812C72.9167 4.57812 72.5443 4.66667 72.2422 4.84375C71.9453 5.01562 71.7083 5.25 71.5312 5.54688C71.3594 5.83854 71.2344 6.16406 71.1562 6.52344C71.0833 6.8776 71.0469 7.23958 71.0469 7.60938V7.9375C71.0469 8.30729 71.0833 8.67188 71.1562 9.03125C71.2292 9.39062 71.3516 9.71615 71.5234 10.0078C71.7005 10.2995 71.9375 10.5339 72.2344 10.7109C72.5365 10.8828 72.9115 10.9688 73.3594 10.9688ZM77.9688 7.86719V7.6875C77.9688 7.07812 78.0573 6.51302 78.2344 5.99219C78.4115 5.46615 78.6667 5.01042 79 4.625C79.3333 4.23438 79.737 3.93229 80.2109 3.71875C80.6849 3.5 81.2161 3.39062 81.8047 3.39062C82.3984 3.39062 82.9323 3.5 83.4062 3.71875C83.8854 3.93229 84.2917 4.23438 84.625 4.625C84.9635 5.01042 85.2214 5.46615 85.3984 5.99219C85.5755 6.51302 85.6641 7.07812 85.6641 7.6875V7.86719C85.6641 8.47656 85.5755 9.04167 85.3984 9.5625C85.2214 10.0833 84.9635 10.5391 84.625 10.9297C84.2917 11.3151 83.888 11.6172 83.4141 11.8359C82.9453 12.0495 82.4141 12.1562 81.8203 12.1562C81.2266 12.1562 80.6927 12.0495 80.2188 11.8359C79.7448 11.6172 79.3385 11.3151 79 10.9297C78.6667 10.5391 78.4115 10.0833 78.2344 9.5625C78.0573 9.04167 77.9688 8.47656 77.9688 7.86719ZM79.4141 7.6875V7.86719C79.4141 8.28906 79.4635 8.6875 79.5625 9.0625C79.6615 9.43229 79.8099 9.76042 80.0078 10.0469C80.2109 10.3333 80.4635 10.5599 80.7656 10.7266C81.0677 10.888 81.4193 10.9688 81.8203 10.9688C82.2161 10.9688 82.5625 10.888 82.8594 10.7266C83.1615 10.5599 83.4115 10.3333 83.6094 10.0469C83.8073 9.76042 83.9557 9.43229 84.0547 9.0625C84.1589 8.6875 84.2109 8.28906 84.2109 7.86719V7.6875C84.2109 7.27083 84.1589 6.8776 84.0547 6.50781C83.9557 6.13281 83.8047 5.80208 83.6016 5.51562C83.4036 5.22396 83.1536 4.99479 82.8516 4.82812C82.5547 4.66146 82.2057 4.57812 81.8047 4.57812C81.4089 4.57812 81.0599 4.66146 80.7578 4.82812C80.4609 4.99479 80.2109 5.22396 80.0078 5.51562C79.8099 5.80208 79.6615 6.13281 79.5625 6.50781C79.4635 6.8776 79.4141 7.27083 79.4141 7.6875ZM88.9219 5.35156V12H87.4766V3.54688H88.8438L88.9219 5.35156ZM88.5781 7.45312L87.9766 7.42969C87.9818 6.85156 88.0677 6.31771 88.2344 5.82812C88.401 5.33333 88.6354 4.90365 88.9375 4.53906C89.2396 4.17448 89.599 3.89323 90.0156 3.69531C90.4375 3.49219 90.9036 3.39062 91.4141 3.39062C91.8307 3.39062 92.2057 3.44792 92.5391 3.5625C92.8724 3.67188 93.1562 3.84896 93.3906 4.09375C93.6302 4.33854 93.8125 4.65625 93.9375 5.04688C94.0625 5.43229 94.125 5.90365 94.125 6.46094V12H92.6719V6.44531C92.6719 6.0026 92.6068 5.64844 92.4766 5.38281C92.3464 5.11198 92.1562 4.91667 91.9062 4.79688C91.6562 4.67188 91.349 4.60938 90.9844 4.60938C90.625 4.60938 90.2969 4.6849 90 4.83594C89.7083 4.98698 89.4557 5.19531 89.2422 5.46094C89.0339 5.72656 88.8698 6.03125 88.75 6.375C88.6354 6.71354 88.5781 7.07292 88.5781 7.45312Z" fill="#0A0C11"/>
</svg>
