<svg width="20" height="16" viewBox="0 0 20 16" fill="none" xmlns="http://www.w3.org/2000/svg">
<path d="M19.8 4.0008C19.8 4.0008 19.605 2.6228 19.005 2.0158C18.245 1.2188 17.392 1.2148 17.001 1.1688C14.202 0.966797 10.004 0.966797 10.004 0.966797H9.995C9.995 0.966797 5.797 0.966797 2.998 1.1688C2.608 1.2158 1.756 1.2198 0.995 2.0158C0.395 2.6228 0.2 4.0008 0.2 4.0008C0.2 4.0008 0 5.6198 0 7.2378V8.7548C0 10.3728 0.2 11.9918 0.2 11.9918C0.2 11.9918 0.395 13.3698 0.995 13.9768C1.756 14.7738 2.755 14.7478 3.2 14.8318C4.8 14.9848 10 15.0328 10 15.0328C10 15.0328 14.203 15.0268 17.001 14.8238C17.392 14.7768 18.244 14.7728 19.005 13.9768C19.605 13.3698 19.8 11.9918 19.8 11.9918C19.8 11.9918 20 10.3738 20 8.7548V7.2378C20 5.6198 19.8 4.0008 19.8 4.0008ZM7.935 10.5938L7.934 4.9738L13.338 7.7938L7.935 10.5938Z" fill="white"/>
</svg>
